<?xml version="1.0" encoding="utf-8" ?>
<svg xmlns="http://www.w3.org/2000/svg" xmlns:xlink="http://www.w3.org/1999/xlink" width="1024" height="1024">
	<path fill="#3F3F3F" transform="scale(2 2)" d="M228.487 50.7506C279.307 50.7131 337.189 53.7771 385.435 70.578C398.859 75.2526 429.22 87.2432 422.374 106.498C432.73 111.285 445.38 117.768 448.877 129.385C457.331 157.466 396.766 176.859 378.299 182.239C382.455 203.118 354.17 215.523 338.236 220.069C360.673 220.41 395.747 214.334 414.275 203.579C430.391 194.223 428.763 185.437 415.443 175.044C426.795 179.638 437.302 187.767 430.055 200.71C420.562 217.664 392.882 222.577 375.291 227.651C375.607 234.801 373.072 240.304 368.56 245.672C389.46 250.729 387.241 268.964 370.528 280.37C355.054 290.93 327.825 297.647 309.417 300.357L309.373 300.694C307.873 311.479 302.405 317.637 294.084 323.954C302.639 338.823 295.109 346.412 283.919 356.756C289.595 360.641 292.33 368.251 290.566 374.91C288.757 381.739 282.756 385.597 277.015 388.944C277.096 400.372 271.621 405.23 261.786 410.564C257.908 416.13 255.691 422.011 251.067 428.029C244.103 436.158 236.192 442.959 226.734 447.995C221.339 450.868 199.669 462.028 195.184 454.2C191.906 448.48 198.09 446.359 201.931 443.848C213.558 436.25 219.699 425.224 223.185 412.099C217.992 406.182 219.093 399.408 223.185 393.144C209.984 386.336 204.044 378.295 212.99 364.801C199.907 357.688 191.979 348.696 204.054 335.731C183.511 329.748 179.375 316.428 195.665 302.622C186.437 300.624 155.251 292.645 163.362 277.797C167.992 269.323 183.445 265.13 192.253 262.573C175.478 256.898 153.003 249.122 162.572 227.651C146.474 221.923 125.289 210.328 141.859 192.647C120.108 189.377 75.036 179.116 65.7681 156.49C64.6571 153.777 63.2936 146.678 64.3769 144.107C69.5197 165.457 89.7241 167.971 105.868 175.044C88.6494 160.491 100.631 148.935 115.793 141.221C99.975 137.539 65.4663 125.694 63.788 105.6C60.5853 67.2556 164.127 54.8909 189.491 52.8131C202.478 51.7492 215.529 51.8056 228.487 50.7506ZM170.288 139.617C186.928 138.652 204.7 136.884 221.33 135.352C256.86 132.078 333.943 120.063 362.644 101.259C372.021 95.1163 376.034 89.4012 378.299 78.6386C301.326 58.6819 200.439 54.5636 124.935 74.8777C115.203 77.4962 65.6829 91.7919 76.2147 109.05C87.4929 127.531 147.961 137.752 170.288 139.617ZM404.193 125.286C396.387 128.907 388.696 132.588 380.499 135.279C313.349 157.318 196.386 161.005 124.781 143.684C119.196 146.68 110.784 150.697 108.748 157.203C102.843 176.067 184.732 187.75 194.774 186.066C197.203 185.375 202.975 185.717 205.84 185.517C255.37 182.062 306.545 174.717 353.16 157.449C361.672 154.296 402.922 135.878 404.193 125.286ZM197.436 223.927C199.833 222.046 223.976 221.704 228.814 221.231C249.646 219.191 304.627 209.704 314.577 195.244C268.402 201.311 222.186 201.933 176.006 196.205C166.982 195.086 155.202 192.039 148.175 201.434C140.285 211.986 179.546 220.904 184.936 221.794C189.008 222.467 193.485 222.816 197.436 223.927ZM170.288 230.623C169.179 252.36 211.934 254.182 226.475 257.933C229.736 256.371 233.611 256.427 237.151 256.167C257.204 254.699 315.294 246.523 329.031 230.623C320.164 230.729 311.132 229.885 302.293 230.497C294.375 231.045 286.4 232.777 278.491 233.688C248.648 237.124 217.979 238.395 188.164 233.927C182.188 233.031 176.282 231.213 170.288 230.623ZM174.294 282.844C182.233 287.694 184.166 289.087 193.65 290.254C193.953 290.117 215.389 289.913 217.739 289.839C242.965 289.042 292.424 287.08 308.334 269.189C286.355 270.516 264.545 271.707 242.547 270.034C237.031 269.614 231.258 268.612 225.757 268.653C214.214 268.738 182.204 274.122 174.294 282.844ZM194.774 314.934C195.985 319.788 198.623 322.068 202.991 323.954C204.477 323.54 206.137 323.624 207.676 323.425C228.624 320.714 253.651 318.937 270.748 305.787L270.721 305.459C253.033 306.339 235.557 306.801 217.903 305.286C207.764 304.415 199.468 301.645 194.774 314.934ZM211.554 337.145C203.954 344.701 206.726 351.334 216.796 354.55C220.228 353.618 224.102 353.644 227.635 353.026C241.225 350.648 268.507 343.696 277.015 331.634C252.921 337.871 236.488 339.8 211.554 337.145ZM368.56 245.672C362.784 251.957 356.111 256.443 348.43 260.088C351.146 269.988 341.139 279.732 334.019 284.931C336.504 284.223 339.119 283.659 341.564 282.844C351.783 280.024 382.032 270.713 377.476 255.282C376.252 251.135 372.351 247.563 368.56 245.672ZM275.436 360.28C263.849 364.15 252.569 366.956 240.278 367.248C234.555 367.384 228.919 366.769 223.185 367.249C217.512 368.865 215.643 380.509 228.487 383.441C232.829 379.894 264.223 377.419 277.015 362.336L275.436 360.28ZM230.751 394.637C228.41 398.002 227.557 401.244 230.751 404.315C239.792 402.163 256.817 400.173 263.534 393.144C252.338 395.31 242.116 396.008 230.751 394.637ZM245.159 415.644C241.134 416.098 237.159 416.348 233.113 416.453C232.125 420.357 231.144 424.117 229.471 427.799C228.867 429.128 225.195 435.544 225.149 436.114L225.476 436.06C229.603 433.374 245.08 420.521 245.688 415.589L245.159 415.644Z"/>
	<path fill="#F16D48" transform="scale(2 2)" d="M263.534 393.144C264.65 392.849 265.766 392.557 266.89 392.293C262.556 402.205 233.827 409.538 230.751 404.315C239.792 402.163 256.817 400.173 263.534 393.144Z"/>
	<path fill="#F16D48" transform="scale(2 2)" d="M277.015 362.336C296.165 378.306 243.797 389.071 228.487 383.441C232.829 379.894 264.223 377.419 277.015 362.336Z"/>
	<path fill="#F16D48" transform="scale(2 2)" d="M277.015 331.634C279.739 330.589 282.506 329.653 285.259 328.69C299.011 350.722 234.928 361.679 216.796 354.55C220.228 353.618 224.102 353.644 227.635 353.026C241.225 350.648 268.507 343.696 277.015 331.634Z"/>
	<path fill="#F16D48" transform="scale(2 2)" d="M270.721 305.459C277.923 304.736 292.638 302.354 299.012 302.622C291.508 325.666 224.518 331.583 206.354 325.463C205.268 325.097 203.898 324.653 202.991 323.954C204.477 323.54 206.137 323.624 207.676 323.425C228.624 320.714 253.651 318.937 270.748 305.787L270.721 305.459Z"/>
	<path fill="#F16D48" transform="scale(2 2)" d="M308.334 269.189C312.092 268.139 316.413 268.209 320.292 267.506C328.738 265.977 336.771 263.809 344.956 261.275C333.76 295.606 245.759 296.417 218.245 294.236C210.093 293.59 201.372 293.149 193.65 290.254C193.953 290.117 215.389 289.913 217.739 289.839C242.965 289.042 292.424 287.08 308.334 269.189Z"/>
	<path fill="#F16D48" transform="scale(2 2)" d="M329.031 230.623C341.433 230.687 359.777 230.791 371.915 227.651C355.454 263.835 271.635 261.382 240.047 258.745C235.529 258.368 231.015 257.8 226.475 257.933C229.736 256.371 233.611 256.427 237.151 256.167C257.204 254.699 315.294 246.523 329.031 230.623Z"/>
	<path fill="#F16D48" transform="scale(2 2)" d="M314.577 195.244C328.843 192.35 343.351 190.81 357.62 187.712C361.196 186.935 364.898 185.765 368.56 185.684C366.747 199.564 346.616 205.803 335.502 209.553C296.287 222.783 239.275 228.515 197.436 223.927C199.833 222.046 223.976 221.704 228.814 221.231C249.646 219.191 304.627 209.704 314.577 195.244Z"/>
	<path fill="#F16D48" transform="scale(2 2)" d="M422.374 108.476C425.713 115.543 441.988 124.953 438.454 136.366C431.777 157.933 379.062 171.262 360.194 175.39C311.058 186.139 260.594 190.554 210.357 187.835C205.106 187.551 199.875 187.451 194.774 186.066C197.203 185.375 202.975 185.717 205.84 185.517C255.37 182.062 306.545 174.717 353.16 157.449C361.672 154.296 402.922 135.878 404.193 125.286C411.528 120.814 417.986 116.083 422.374 108.476Z"/>
	<path fill="#F16D48" transform="scale(2 2)" d="M378.299 78.6386C406.513 86.7926 441.235 102.64 398.167 122.53C345.046 147.062 248.595 146.538 187.152 141.501C181.537 141.041 175.814 140.756 170.288 139.617C186.928 138.652 204.7 136.884 221.33 135.352C256.86 132.078 333.943 120.063 362.644 101.259C372.021 95.1163 376.034 89.4012 378.299 78.6386Z"/>
	<path fill="#3F3F3F" transform="scale(2 2)" d="M297.749 75.2604C310.928 74.1992 341.763 85.5481 313.942 98.8058C285.502 112.358 229.02 112.582 198.196 108.476C193.961 108.084 189.761 106.96 185.499 106.498C190.903 105.688 196.491 105.916 201.948 105.815C234.922 105.206 273.25 100.395 305.972 93.7508C330.034 88.8651 307.14 80.0972 297.749 75.2604Z"/>
</svg>
